# xmcd CD database file
#
# Track frame offsets:
#	150
#	23777
#	44042
#	72887
#	95737
#	121810
#	134355
#	164207
#	184892
#	206945
#
# Disc length: 3144 seconds
#
# Revision: 0
# Processed by: cddbd v1.5.1PL0 Copyright (c) Steve Scherf et al.
# Submitted via: CDex 1.51
#
DISCID=9d0c460a
DTITLE=Pete Malinverni - The Tempest
DYEAR=1900
DGENRE=Jazz
TTITLE0=Tempest
TTITLE1=My Heart Stood Still
TTITLE2=Let the Sea Roar (Psalm 98:7-9)
TTITLE3=Alone Together
TTITLE4=Twelve
TTITLE5=Get Happy
TTITLE6=My Ideal
TTITLE7=From This Moment On
TTITLE8=Alone Together
TTITLE9=It Could Happen to You
EXTD=
EXTT0=
EXTT1=
EXTT2=
EXTT3=
EXTT4=
EXTT5=
EXTT6=
EXTT7=
EXTT8=
EXTT9=
PLAYORDER=
